<mxfile host="app.diagrams.net" modified="2023-06-07T03:25:02.952Z" agent="Mozilla/5.0 (Windows NT 10.0; Win64; x64) AppleWebKit/537.36 (KHTML, like Gecko) Chrome/113.0.0.0 Safari/537.36" version="21.3.6" etag="PDe20AJrTilSz3GWabbI" type="github">
  <diagram name="Page-1" id="U8KYSiyKVx0geW_BPoEI">
    <mxGraphModel>
      <root>
        <mxCell id="0" />
        <mxCell id="1" parent="0" />
      </root>
    </mxGraphModel>
  </diagram>
</mxfile>
